<svg xmlns="http://www.w3.org/2000/svg" xmlns:xlink="http://www.w3.org/1999/xlink" width="500" zoomAndPan="magnify" viewBox="0 0 375 374.999991" height="500" preserveAspectRatio="xMidYMid meet" version="1.0"><defs><clipPath id="id1"><path d="M 26.125 11.96875 L 348.625 11.96875 L 348.625 362.96875 L 26.125 362.96875 Z M 26.125 11.96875 " clip-rule="nonzero"/></clipPath></defs><path fill="rgb(66.268921%, 67.059326%, 68.238831%)" d="M 104.3125 44.429688 C 84.707031 94.160156 107.238281 122.765625 171.898438 130.246094 C 130.449219 108.519531 124.066406 70.277344 152.757812 15.511719 C 123.289062 27.28125 109.996094 48.613281 112.871094 79.507812 C 105.8125 67.578125 102.960938 55.882812 104.3125 44.429688 Z M 104.3125 44.429688 " fill-opacity="1" fill-rule="evenodd"/><g clip-path="url(#id1)"><path fill="rgb(21.569824%, 20.388794%, 20.779419%)" d="M 118.457031 117.28125 C 79.347656 95.832031 53.394531 56.394531 49.152344 11.972656 C 35.695312 28.292969 29.597656 49.464844 32.3125 70.449219 C 35.027344 91.429688 46.3125 110.351562 63.480469 122.703125 C 49.980469 120.03125 37.226562 114.425781 26.125 106.28125 C 31.070312 130.082031 51.191406 147.710938 75.425781 149.46875 C 65.921875 154.191406 55.148438 155.703125 44.714844 153.777344 C 62.523438 193.972656 116.839844 194.386719 207.65625 155.015625 C 207.617188 155.03125 207.574219 155.050781 207.53125 155.070312 C 123.847656 191.613281 41.085938 274.425781 107.117188 362.054688 C 105.195312 369.417969 116.175781 332.046875 140.0625 249.9375 C 287.164062 271.859375 165.996094 117.800781 348.625 124.316406 L 269.71875 113.5 C 259.4375 98.414062 241.851562 90.015625 223.664062 91.507812 C 202.894531 93.207031 184.992188 107.0625 180.203125 127.519531 C 220.660156 95.585938 208.15625 138.265625 244.457031 119.085938 C 204.75 139.40625 157.5625 138.730469 118.457031 117.28125 Z M 118.457031 117.28125 " fill-opacity="1" fill-rule="evenodd"/></g></svg>